<svg xmlns="http://www.w3.org/2000/svg" fill="#749A81" viewBox="0 0 1024 1024"><path d="M532.2 984c33.8-21.5 67.7-42.9 101.5-64.4 15.3-9.7 30.8-19.3 45.7-29.7 35.4-24.7 68.6-52.8 98.1-84.4 58.4-62.7 102.8-137 130.9-217.9 22.9-66.1 32.7-135.8 32.7-205.6V248.9c0-17.9-12.5-33.5-29.4-38.6-12.2-3.7-24.3-7.5-36-12.4 3.2 1.3 6.4 2.7 9.6 4-20.9-8.9-40.5-20.3-58.5-34.1l8.1 6.3c-17.8-13.8-33.8-29.7-47.6-47.5l6.3 8.1c-13.8-18-25.3-37.7-34.2-58.6 1.3 3.2 2.7 6.4 4 9.6-3-7.2-5.8-14.6-8.2-22-5.4-16.9-20.5-29.4-38.6-29.4H357.7c-16.5 0-33.1-.5-49.6 0h-.7c-18.2 0-33.2 12.5-38.6 29.4-2.4 7.5-5.1 14.8-8.2 22 1.3-3.2 2.7-6.4 4-9.6-8.9 20.9-20.4 40.5-34.2 58.6l6.3-8.1c-13.8 17.8-29.8 33.7-47.6 47.5l8.1-6.3c-18 13.8-37.7 25.2-58.5 34.1 3.2-1.3 6.4-2.7 9.6-4-11.8 4.9-23.8 8.7-36 12.4-16.9 5.1-29.4 20.7-29.4 38.6v120.6c0 21.2 0 42.4 1.5 63.6 3.2 43.1 10.5 86.1 22.6 127.6 24 82.4 65.6 158.3 120.8 223.8 42.9 50.9 94.6 92.1 150.6 127.6l110.7 70.2c.9.6 1.9 1.2 2.8 1.8 17.7 11.2 44.9 4.3 54.7-14.4 10.4-19.8 4.5-42.7-14.4-54.7-18-11.4-36-22.8-53.9-34.2-23-14.6-45.9-29.1-68.9-43.7-16.1-10.2-31.8-21.1-47-32.7l8.1 6.3c-37.8-29.3-71.8-63.3-101.1-101.1l6.3 8.1c-29.8-38.7-54.6-81.1-73.7-126.1 1.3 3.2 2.7 6.4 4 9.6-19.5-46.3-32.8-94.9-39.5-144.7.5 3.5 1 7.1 1.4 10.6-4.3-32.4-5-64.8-5-97.3V249.3c-9.8 12.9-19.6 25.7-29.4 38.6 34.5-10.4 67.9-24.2 97.2-45.3 34.7-25 64.3-55.8 86.3-92.6 12.1-20.2 21.8-42.2 29-64.6-12.9 9.8-25.7 19.6-38.6 29.4H666.3c16.5 0 33.1.4 49.6 0h.7c-12.9-9.8-25.7-19.6-38.6-29.4 25.1 78.3 82.1 146.4 156.9 181.6 18 8.5 36.5 15.1 55.6 20.9-9.8-12.9-19.6-25.7-29.4-38.6v141.8c0 25.4-1.7 50.8-5 76 .5-3.5 1-7.1 1.4-10.6-6.8 49.7-20.1 98.4-39.5 144.7 1.3-3.2 2.7-6.4 4-9.6-19.1 45-43.9 87.4-73.7 126.1l6.3-8.1c-29.3 37.8-63.3 71.8-101.1 101.1l8.1-6.3c-22.4 17.3-46.2 32.2-70 47.4-26.4 16.8-52.8 33.5-79.2 50.3-6.8 4.3-13.7 8.7-20.5 13-8.7 5.5-15.6 13.8-18.4 23.9-2.6 9.6-1.4 22.3 4 30.8 11.4 17.6 35.8 26.2 54.7 14.2z"/><path d="m308.2 509.9 102.7 102.7 14.6 14.6c15.3 15.3 41.3 15.3 56.6 0l79.3-79.3 125.5-125.5 28.9-28.9c14.8-14.8 15.9-42 0-56.6-16-14.7-40.8-15.8-56.6 0l-79.3 79.3-125.5 125.5-28.9 28.9h56.6L379.4 467.9l-14.6-14.6c-14.8-14.8-42-15.9-56.6 0-14.7 16-15.8 40.7 0 56.6z"/></svg>