<svg xmlns="http://www.w3.org/2000/svg" fill="#749A81" width="32" height="32"><path d="M6.488 6.998V7a.5.5 0 0 0-.125.02L.861 8.578a.5.5 0 0 0-.363.483v6.5c-.008 2.071 1.549 3.448 2.998 4.27 1.14.645 2.072.922 2.504 1.04v2.559c0 .862.71 1.572 1.572 1.572h21.856A1.58 1.58 0 0 0 31 23.43V10.574a1.58 1.58 0 0 0-1.572-1.572H12.496a.5.5 0 0 0-.36-.424L6.636 7.02a.5.5 0 0 0-.147-.022zM6.5 8.02l5 1.418v6.122c0 .562-.158 1.06-.414 1.504l-.107.163c-.35.532-.857.98-1.41 1.359-.091.062-.181.124-.274.182l-.012.007c-.16.1-.323.198-.486.286v.002c-.249.132-.5.26-.735.363-.269.117-.522.217-.74.293-.003 0-.007 0-.01.002a9.236 9.236 0 0 1-.814.246c-.109-.027-1.26-.3-2.508-1.006-1.304-.739-2.499-1.831-2.492-3.398V9.439L6.5 8.02zm6 1.982h16.928c.324 0 .572.247.572.572V11H12.5v-.998zm0 1.998H30v2H12.5v-2zm-4.586.408-1.77 1.768-1.06-1.06-.707.706 1.768 1.768 2.476-2.475-.707-.707zM12.5 15H30v8.43a.561.561 0 0 1-.572.572H7.572A.562.562 0 0 1 7 23.43v-2.56a10.87 10.87 0 0 0 2.158-.867L19 20.001v-3h-6.773c.172-.438.273-.917.273-1.441V15zm11 1a2.508 2.508 0 0 0-2.5 2.5c0 1.375 1.125 2.5 2.5 2.5.548 0 1.074-.184 1.504-.51.419.317.934.512 1.496.512 1.375 0 2.5-1.125 2.5-2.5s-1.125-2.5-2.5-2.5c-.562 0-1.076.194-1.494.51a2.496 2.496 0 0 0-1.504-.51H23.5V16zm-.002.998V17h.002c.304 0 .563.157.8.34a2.463 2.463 0 0 0-.298 1.146l-.002.012v.004c0 .42.115.811.3 1.16-.238.182-.497.336-.8.336-.834 0-1.5-.666-1.5-1.5s.665-1.499 1.498-1.5zm3.002.004c.834 0 1.5.666 1.5 1.5s-.666 1.5-1.5 1.5c-.412 0-.783-.163-1.053-.428l-.052-.06-.02-.024-.004-.006a1.503 1.503 0 0 1-.271-.45l-.004-.016a1.493 1.493 0 0 1-.096-.516c0-.18.034-.356.096-.522l.004-.007c.063-.167.155-.324.275-.46l.082-.091c.27-.26.635-.42 1.043-.42zm-14.846 1H18v1h-7.303a5.83 5.83 0 0 0 .957-1zM8 22v1h3v-1H8zm4 0v1h3v-1h-3zm4 0v1h3v-1h-3zm4 0v1h3v-1h-3z" color="#000" font-family="sans-serif" font-weight="400" overflow="visible" style="line-height:normal;text-indent:0;text-align:start;text-decoration-line:none;text-decoration-style:solid;text-decoration-color:#000;text-transform:none;block-progression:tb;white-space:normal;isolation:auto;mix-blend-mode:normal;solid-color:#000;solid-opacity:1"/></svg>