<svg xmlns="http://www.w3.org/2000/svg" fill="#749A81" enable-background="new 0 0 24 24" viewBox="0 0 24 24"><path d="M7,18.25c-0.414,0-0.75-0.336-0.75-0.75v-2.56c0.03-1.689,1.099-2.69,2.859-2.69h5.49c2.285,0,3.649-1.286,3.649-3.44V6.25c0-0.414,0.336-0.75,0.75-0.75s0.75,0.336,0.75,0.75v2.5c0,3.061-2.021,5-5.149,5h-5.49c-1.179,0-1.349,0.608-1.359,1.204V17.5C7.75,17.914,7.414,18.25,7,18.25z"/><path d="M12.169,24c-0.966,0-1.952-0.076-2.891-0.229C7.437,23.459,6.25,22.046,6.25,20.17V14.94c0-0.414,0.336-0.75,0.75-0.75s0.75,0.336,0.75,0.75v5.229c0,1.141,0.663,1.933,1.774,2.121c1.737,0.282,3.645,0.28,5.229-0.01c0.937-0.16,1.524-0.397,1.802-0.726c0.226-0.267,0.322-0.681,0.322-1.386v-2.42h-4.129c-0.414,0-0.75-0.336-0.75-0.75s0.336-0.75,0.75-0.75h4.879c0.414,0,0.75,0.336,0.75,0.75v3.17c0,0.725-0.077,1.646-0.678,2.355c-0.522,0.616-1.375,1.009-2.685,1.233C14.134,23.919,13.162,24,12.169,24z"/><path d="M19.688 17.75h-2.06c-.414 0-.75-.336-.75-.75s.336-.75.75-.75h2.06c1.446 0 2.133-.512 2.451-1.826.483-2.019.483-3.192-.001-5.231C21.7 7.373 21.045 7 20.198 7h-.45v1.75c0 .414-.336.78-.75.78s-.75-.307-.75-.721V6.25c0-.414.336-.75.75-.75h1.2c2.325 0 3.053 1.908 3.399 3.344.535 2.256.535 3.696 0 5.931C23.12 16.749 21.805 17.75 19.688 17.75zM13.999 21.75c-.965 0-1.75-.786-1.75-1.752 0-.964.785-1.748 1.75-1.748s1.75.784 1.75 1.748C15.739 20.968 14.954 21.75 13.999 21.75zM13.999 19.75c-.138 0-.25.111-.25.248 0 .272.497.276.5-.007C14.249 19.861 14.136 19.75 13.999 19.75zM5.002 18.5c-.414 0-.75-.336-.75-.75v-2.5c0-3.061 2.021-5 5.149-5h5.49c1.179 0 1.349-.608 1.359-1.203V6.5c0-.414.336-.75.75-.75s.75.336.75.75v2.561c-.03 1.689-1.099 2.689-2.859 2.689h-5.49c-2.285 0-3.649 1.286-3.649 3.44v2.56C5.752 18.164 5.416 18.5 5.002 18.5z"/><path d="M17,9.811c-0.414,0-0.75-0.336-0.75-0.75V3.83c0-1.141-0.663-1.933-1.774-2.121c-1.737-0.282-3.645-0.28-5.229,0.01C8.31,1.879,7.723,2.116,7.444,2.444C7.218,2.711,7.122,3.125,7.122,3.83v2.42h4.129c0.414,0,0.75,0.336,0.75,0.75s-0.336,0.75-0.75,0.75H6.372c-0.414,0-0.75-0.336-0.75-0.75V3.83c0-0.725,0.077-1.646,0.678-2.355c0.522-0.616,1.375-1.009,2.685-1.233c1.74-0.316,3.833-0.322,5.737-0.012c1.842,0.312,3.029,1.725,3.029,3.601v5.23C17.75,9.475,17.415,9.811,17,9.811z"/><path d="M5.002 18.5h-1.2c-2.325 0-3.053-1.908-3.399-3.344-.535-2.256-.535-3.696 0-5.931C.88 7.251 2.195 6.25 4.312 6.25h2.06c.414 0 .75.336.75.75s-.336.75-.75.75h-2.06c-1.446 0-2.133.512-2.451 1.826-.483 2.019-.483 3.192.001 5.231C2.3 16.627 2.955 17 3.802 17h.45v-1.75c0-.414.336-.78.75-.78s.75.307.75.721v2.56C5.752 18.164 5.416 18.5 5.002 18.5zM10.001 5.75c-.965 0-1.75-.784-1.75-1.748.009-.97.794-1.752 1.75-1.752.965 0 1.75.786 1.75 1.752C11.751 4.966 10.966 5.75 10.001 5.75zM10.001 3.75c-.139 0-.249.114-.25.259 0 .26.5.267.5-.007C10.251 3.868 10.135 3.75 10.001 3.75z"/></svg>