<svg id="Calque_1" data-name="Calque 1" xmlns="http://www.w3.org/2000/svg" viewBox="0 0 512 512"><defs><style>.cls-1{fill:#1d1d1b;}.cls-2{fill:#608272;}.cls-3{fill:none;}</style></defs><path class="cls-1" d="M430.62,152.32q0,13-4.82,22.82l-1.77-.85a46,46,0,0,0,2.19-6.57,80.51,80.51,0,0,0,1.66-15.95,65.68,65.68,0,0,0-14.3-41.8q-14.31-18.15-36.86-20.35-35.19-3.3-52.52,19.8t-17.32,57.2q0,29.16,11.54,52.25l3.3,5.5a61.37,61.37,0,0,0,7.7,9.35l1.11,1.1,4.39,4.4v.55q-9.89-6-14.84-12.65l-5.5-6.6q-5.5-2.75-13.75-2.75c-4.41,0-10.45,1.29-18.16,3.85a2.24,2.24,0,0,1,.55,1.65l.56,2.2a6.23,6.23,0,0,1,.55,2.75l.55.55v.55a81.45,81.45,0,0,1,1.09,14.3q0,6.6-.55,7.7-4.95,17.06-17.87,27.23Q255,288.4,237.66,291.27l-.37-2.22q21-3.53,31.63-17.38a53.83,53.83,0,0,0,9.91-31.35l-.55-9.9v-.55l-1.11-3.3v-2.75l-4.39-14.3a169,169,0,0,0-8.81-19.8q-13.2-24.75-35.19-50.05-21.47-24.19-39.33-35.2t-31.62-11q-12.66,0-20.08,7.7a25.3,25.3,0,0,0-7.42,18.15q0,12.11,9.89,18.7,36.3,22,36.31,48.95A31.84,31.84,0,0,1,165,212.27q-11.53,9.9-25.3,8.8-10.44-1.09-16.5-3.57a51.29,51.29,0,0,1-9.62-4.95c-2.39-1.65-3.39-1.56-3,.27q.54,3.3,8.25,16a137.28,137.28,0,0,1,11.82,19.8,44.81,44.81,0,0,1,4.12,19.25q0,14.85-10.44,28.05-5.5,6.6-9.9,11-23.11,27-27,41.25a51,51,0,0,0-2.2,15.95,67.44,67.44,0,0,0,1.72,15.3l-2.59.58a71.74,71.74,0,0,1-1.88-16.43,54.6,54.6,0,0,1,5-23.65q22-48.39,22-87.45,0-18.69-4.12-32.45a202.32,202.32,0,0,0-8.52-23.65q-4.41-9.9-5.5-12.65-8.81-20.34-8.81-39.6,0-26.94,16.78-44t54.17-15.4q14.87.56,30.25,9.35.56.56,8.53,5.5t24.2,20.9a337,337,0,0,1,32.72,38l2.21,3.3q12.64,16,30.79,16a41.42,41.42,0,0,0,16.5-3.3V161.67q.56-13.74,6.6-31.35A79.54,79.54,0,0,1,325.85,98.7q14.56-14,38.77-14a87.44,87.44,0,0,1,16,1.1q23.64,5,36.84,24.48A73.7,73.7,0,0,1,430.62,152.32Z"/><path class="cls-1" d="M421.83,332.17q8.79,19.8,8.79,39.05,0,27-16.77,44.28t-53.63,15.12a59.55,59.55,0,0,1-30.8-9.35c-.36-.36-3.21-2.2-8.52-5.5s-13.57-10.53-24.75-21.72a350.26,350.26,0,0,1-33.82-39.88l-1.11-1.1c-.73-.73-1.1-1.28-1.1-1.65A135.78,135.78,0,0,1,245.83,330q-7.16-4.39-17.61-4.4a43.46,43.46,0,0,0-13.75,2.2,111.63,111.63,0,0,1,.56,25.3q-.56,13.2-6.61,31.35a79.73,79.73,0,0,1-20.89,32.45q-14.86,14.31-39.61,14.3a78.75,78.75,0,0,1-15.39-1.65A55.47,55.47,0,0,1,96,405.6,75.13,75.13,0,0,1,84.35,380l2.59-.58A64.7,64.7,0,0,0,99.8,405.32q14.57,18.15,36.58,20.35,36.3,3.3,54.45-21.72T209,342.62a126.56,126.56,0,0,0-5.5-37.95q-5.49-17.6-15.39-26.95l-1.11-1.1a12.5,12.5,0,0,1-4.39-4.4v-.55a58.17,58.17,0,0,1,14.84,12.65l3.3,4.95a14.44,14.44,0,0,1,4.4.55h2.76a103.75,103.75,0,0,0,21.45,0l6.59-.55,1.37-.22.37,2.22c-.39.08-.79.14-1.19.2q.56,4.95,3.86,14.85,5.49,13.2,8.79,19.8,13.2,24.75,35.21,50.05,21.44,24.21,39.32,35.2t31.63,11q12.64,0,20.07-7.7a25.28,25.28,0,0,0,7.43-18.15q0-12.09-9.9-18.7-36.31-22-36.3-48.95A32.31,32.31,0,0,1,348.4,303.3q11.82-10.17,25-9.08,15.4,1.65,22.28,6.33t6.88,3.57q0-4.39-8.25-17.6a135.47,135.47,0,0,1-11.83-19.8,44.75,44.75,0,0,1-4.12-19.25q0-14.29,11-27.5a75.32,75.32,0,0,1,9.34-11q13.21-15.39,19.25-23.92A55.2,55.2,0,0,0,424,174.29l1.77.85c0,.09-.08.19-.13.28q-22,49-22,87.45,0,18.15,3.86,31.63a176.91,176.91,0,0,0,8.25,23.37Q420.17,327.77,421.83,332.17Z"/><path class="cls-2" d="M427.88,151.77a80.51,80.51,0,0,1-1.66,15.95,46,46,0,0,1-2.19,6.57A55.2,55.2,0,0,1,418,185.05q-6,8.53-19.25,23.92a75.32,75.32,0,0,0-9.34,11q-11,13.2-11,27.5a44.75,44.75,0,0,0,4.12,19.25,135.47,135.47,0,0,0,11.83,19.8q8.25,13.2,8.25,17.6,0,1.11-6.88-3.57t-22.28-6.33q-13.2-1.1-25,9.08a32.31,32.31,0,0,0-11.82,25.57q0,27,36.3,48.95,9.89,6.6,9.9,18.7a25.28,25.28,0,0,1-7.43,18.15q-7.43,7.71-20.07,7.7-13.75,0-31.63-11t-39.32-35.2q-22-25.29-35.21-50.05-3.3-6.6-8.79-19.8-3.32-9.9-3.86-14.85c.4-.06.8-.12,1.19-.2q17.4-2.88,29.89-12.72,12.92-10.17,17.87-27.23.56-1.09.55-7.7a81.45,81.45,0,0,0-1.09-14.3v-.55l-.55-.55a6.23,6.23,0,0,0-.55-2.75l-.56-2.2a2.24,2.24,0,0,0-.55-1.65c7.71-2.56,13.75-3.85,18.16-3.85q8.25,0,13.75,2.75l5.5,6.6q4.95,6.6,14.84,12.65v-.55l-4.39-4.4-1.11-1.1a61.37,61.37,0,0,1-7.7-9.35l-3.3-5.5q-11.55-23.1-11.54-52.25,0-34.1,17.32-57.2t52.52-19.8q22.56,2.2,36.86,20.35A65.68,65.68,0,0,1,427.88,151.77Z"/><path class="cls-2" d="M278.28,230.42l.55,9.9a53.83,53.83,0,0,1-9.91,31.35q-10.65,13.86-31.63,17.38l-1.37.22-6.59.55a103.75,103.75,0,0,1-21.45,0h-2.76a14.44,14.44,0,0,0-4.4-.55l-3.3-4.95a58.17,58.17,0,0,0-14.84-12.65v.55a12.5,12.5,0,0,0,4.39,4.4l1.11,1.1q9.88,9.36,15.39,26.95a126.56,126.56,0,0,1,5.5,37.95q0,36.3-18.14,61.33t-54.45,21.72q-22-2.19-36.58-20.35a64.7,64.7,0,0,1-12.86-25.95,67.44,67.44,0,0,1-1.72-15.3,51,51,0,0,1,2.2-15.95q3.85-14.3,27-41.25,4.4-4.39,9.9-11,10.44-13.2,10.44-28.05a44.81,44.81,0,0,0-4.12-19.25,137.28,137.28,0,0,0-11.82-19.8q-7.71-12.65-8.25-16c-.37-1.83.63-1.92,3-.27a51.29,51.29,0,0,0,9.62,4.95q6.06,2.48,16.5,3.57,13.76,1.11,25.3-8.8A31.84,31.84,0,0,0,176.53,187q0-26.94-36.31-48.95-9.9-6.6-9.89-18.7a25.3,25.3,0,0,1,7.42-18.15q7.42-7.69,20.08-7.7,13.74,0,31.62,11t39.33,35.2q22,25.31,35.19,50.05a169,169,0,0,1,8.81,19.8l4.39,14.3v2.75l1.11,3.3Z"/><rect class="cls-3" width="512" height="512"/></svg>